<svg width="157" height="34" viewBox="0 0 157 34" fill="none" xmlns="http://www.w3.org/2000/svg">
<path d="M36.97 9.87451H40.4573V23.3911H36.97V21.7962C35.9247 23.1118 34.4559 23.7696 32.5636 23.7696C30.7614 23.7696 29.2115 23.0847 27.9139 21.7151C26.6343 20.3273 25.9945 18.6333 25.9945 16.6328C25.9945 14.6324 26.6343 12.9473 27.9139 11.5776C29.2115 10.1899 30.7614 9.49604 32.5636 9.49604C34.4559 9.49604 35.9247 10.1539 36.97 11.4695V9.87451ZM30.5361 19.3902C31.239 20.0931 32.1311 20.4445 33.2124 20.4445C34.2937 20.4445 35.1858 20.0931 35.8887 19.3902C36.6096 18.6693 36.97 17.7502 36.97 16.6328C36.97 15.5154 36.6096 14.6053 35.8887 13.9025C35.1858 13.1816 34.2937 12.8211 33.2124 12.8211C32.1311 12.8211 31.239 13.1816 30.5361 13.9025C29.8333 14.6053 29.4818 15.5154 29.4818 16.6328C29.4818 17.7502 29.8333 18.6693 30.5361 19.3902ZM50.5941 9.49604C52.0719 9.49604 53.2884 9.99165 54.2436 10.9829C55.2168 11.9741 55.7034 13.3438 55.7034 15.0919V23.3911H52.2161V15.5244C52.2161 14.6233 51.9728 13.9385 51.4862 13.4699C50.9996 12.9833 50.3508 12.74 49.5398 12.74C48.6387 12.74 47.9178 13.0194 47.3772 13.5781C46.8365 14.1367 46.5662 14.9748 46.5662 16.0921V23.3911H43.0789V9.87451H46.5662V11.3884C47.4132 10.1268 48.7559 9.49604 50.5941 9.49604ZM68.413 9.87451H71.9003V23.3911H68.413V21.7962C67.3677 23.1118 65.8989 23.7696 64.0066 23.7696C62.2044 23.7696 60.6545 23.0847 59.3569 21.7151C58.0773 20.3273 57.4375 18.6333 57.4375 16.6328C57.4375 14.6324 58.0773 12.9473 59.3569 11.5776C60.6545 10.1899 62.2044 9.49604 64.0066 9.49604C65.8989 9.49604 67.3677 10.1539 68.413 11.4695V9.87451ZM61.9791 19.3902C62.682 20.0931 63.5741 20.4445 64.6554 20.4445C65.7367 20.4445 66.6288 20.0931 67.3317 19.3902C68.0526 18.6693 68.413 17.7502 68.413 16.6328C68.413 15.5154 68.0526 14.6053 67.3317 13.9025C66.6288 13.1816 65.7367 12.8211 64.6554 12.8211C63.5741 12.8211 62.682 13.1816 61.9791 13.9025C61.2763 14.6053 60.9248 15.5154 60.9248 16.6328C60.9248 17.7502 61.2763 18.6693 61.9791 19.3902ZM82.0371 9.49604C83.5149 9.49604 84.7314 9.99165 85.6866 10.9829C86.6598 11.9741 87.1464 13.3438 87.1464 15.0919V23.3911H83.6591V15.5244C83.6591 14.6233 83.4158 13.9385 82.9292 13.4699C82.4426 12.9833 81.7938 12.74 80.9828 12.74C80.0817 12.74 79.3608 13.0194 78.8202 13.5781C78.2795 14.1367 78.0092 14.9748 78.0092 16.0921V23.3911H74.5219V9.87451H78.0092V11.3884C78.8562 10.1268 80.1989 9.49604 82.0371 9.49604ZM99.856 9.87451H103.343V23.3911H99.856V21.7962C98.8107 23.1118 97.3419 23.7696 95.4496 23.7696C93.6474 23.7696 92.0975 23.0847 90.7999 21.7151C89.5203 20.3273 88.8805 18.6333 88.8805 16.6328C88.8805 14.6324 89.5203 12.9473 90.7999 11.5776C92.0975 10.1899 93.6474 9.49604 95.4496 9.49604C97.3419 9.49604 98.8107 10.1539 99.856 11.4695V9.87451ZM93.4221 19.3902C94.125 20.0931 95.0171 20.4445 96.0984 20.4445C97.1797 20.4445 98.0718 20.0931 98.7747 19.3902C99.4956 18.6693 99.856 17.7502 99.856 16.6328C99.856 15.5154 99.4956 14.6053 98.7747 13.9025C98.0718 13.1816 97.1797 12.8211 96.0984 12.8211C95.0171 12.8211 94.125 13.1816 93.4221 13.9025C92.7193 14.6053 92.3678 15.5154 92.3678 16.6328C92.3678 17.7502 92.7193 18.6693 93.4221 19.3902ZM110.02 23.7696C109.137 23.7696 108.317 23.5353 107.56 23.0667C106.821 22.5981 106.235 21.9493 105.803 21.1203C105.37 20.2913 105.154 19.3812 105.154 18.39C105.154 17.0023 105.496 15.6236 106.181 14.2539C106.866 12.8662 107.803 11.7308 108.993 10.8477C110.2 9.96462 111.516 9.52308 112.939 9.52308C113.895 9.52308 114.742 9.73934 115.481 10.1719C116.238 10.5864 116.724 11.1541 116.94 11.875C116.454 12.9563 115.751 13.497 114.832 13.497C114.399 13.497 114.093 13.4068 113.913 13.2266C113.732 13.0284 113.543 12.713 113.345 12.2805C113.129 11.7939 112.948 11.4514 112.804 11.2532C112.66 11.055 112.444 10.9558 112.155 10.9558C111.615 10.9558 111.119 11.2712 110.669 11.902C110.236 12.5148 109.894 13.3167 109.641 14.308C109.407 15.2812 109.29 16.2724 109.29 17.2816C109.29 18.5071 109.524 19.4262 109.993 20.039C110.461 20.6517 111.065 20.9581 111.804 20.9581C112.345 20.9581 112.876 20.7959 113.399 20.4715C113.94 20.1291 114.516 19.5344 115.129 18.6873L115.994 19.228C114.534 22.2557 112.543 23.7696 110.02 23.7696ZM119.379 23.7696C118.586 23.7696 117.982 23.5443 117.567 23.0937C117.153 22.6432 116.946 22.0034 116.946 21.1744C116.946 20.6698 117.009 20.1652 117.135 19.6605L119.973 7.33339C120.027 7.11712 120.054 6.91888 120.054 6.73866C120.054 6.4503 119.946 6.23404 119.73 6.08986C119.532 5.92766 119.18 5.77447 118.676 5.6303L118.919 4.60303L124.758 3.38654H125.002L121.082 20.3364C121.028 20.5706 121.001 20.7689 121.001 20.9311C121.001 21.3096 121.145 21.4988 121.433 21.4988C121.866 21.4988 122.424 20.9852 123.109 19.9579L123.866 20.5256C123.145 21.7691 122.424 22.6252 121.703 23.0937C120.983 23.5443 120.208 23.7696 119.379 23.7696ZM139.508 20.5256C138.787 21.7691 138.066 22.6252 137.345 23.0937C136.643 23.5443 135.877 23.7696 135.048 23.7696C134.255 23.7696 133.642 23.5443 133.209 23.0937C132.795 22.6432 132.588 22.0034 132.588 21.1744C132.588 20.6698 132.651 20.1652 132.777 19.6605L133.074 18.39H132.912C132.137 20.0841 131.308 21.4087 130.425 22.3639C129.56 23.301 128.587 23.7696 127.505 23.7696C126.622 23.7696 125.865 23.4001 125.235 22.6612C124.622 21.9223 124.315 20.886 124.315 19.5524C124.315 17.8223 124.757 16.1913 125.64 14.6594C126.541 13.1095 127.677 11.875 129.046 10.9558C130.416 10.0187 131.777 9.55011 133.128 9.55011C133.687 9.55011 134.246 9.64022 134.804 9.82044C135.363 10.0007 135.832 10.253 136.21 10.5774L138.994 9.57714H139.238L136.751 20.3634C136.697 20.5977 136.67 20.8049 136.67 20.9852C136.67 21.3276 136.814 21.4988 137.102 21.4988C137.517 21.4988 138.066 20.9852 138.751 19.9579L139.508 20.5256ZM129.506 20.9041C129.992 20.9041 130.569 20.4715 131.236 19.6065C131.903 18.7234 132.533 17.633 133.128 16.3354C133.741 15.0198 134.182 13.7673 134.453 12.5778L134.642 11.8209C134.516 11.4965 134.327 11.2532 134.074 11.091C133.822 10.9288 133.543 10.8477 133.236 10.8477C132.407 10.8477 131.65 11.3343 130.966 12.3075C130.281 13.2807 129.731 14.4521 129.317 15.8218C128.92 17.1735 128.722 18.3719 128.722 19.4172C128.722 20.4084 128.983 20.9041 129.506 20.9041ZM155.61 20.5256C154.871 21.7511 154.141 22.5981 153.42 23.0667C152.699 23.5353 151.924 23.7696 151.095 23.7696C150.302 23.7696 149.699 23.5533 149.284 23.1208C148.888 22.6702 148.689 22.0304 148.689 21.2014C148.689 20.6427 148.78 20.039 148.96 19.3902L150.42 13.6862C150.492 13.4519 150.528 13.2266 150.528 13.0104C150.528 12.5598 150.338 12.3345 149.96 12.3345C149.581 12.3345 149.068 12.6679 148.419 13.3348C147.77 14.0016 147.094 15.0469 146.392 16.4706C145.707 17.8763 145.121 19.6335 144.634 21.7421L144.256 23.3911H140.093L142.391 13.524C142.445 13.3077 142.472 13.1185 142.472 12.9563C142.472 12.6499 142.364 12.4246 142.147 12.2805C141.949 12.1183 141.598 11.9651 141.093 11.8209L141.336 10.7936L147.176 9.57714H147.419L146.229 14.7405H146.419C147.302 12.9923 148.266 11.6857 149.311 10.8207C150.356 9.93759 151.375 9.49604 152.366 9.49604C153.177 9.49604 153.772 9.72132 154.15 10.1719C154.547 10.6224 154.745 11.2532 154.745 12.0642C154.745 12.6229 154.664 13.2446 154.502 13.9295L152.88 20.3634C152.807 20.5977 152.771 20.8049 152.771 20.9852C152.771 21.3276 152.916 21.4988 153.204 21.4988C153.42 21.4988 153.654 21.3816 153.907 21.1474C154.159 20.895 154.484 20.4986 154.88 19.9579L155.61 20.5256Z" fill="black"/>
<path d="M25.368 23.1422C25.3378 22.8912 25.2867 22.6935 25.182 22.4238C24.8031 21.452 23.7941 20.7359 22.2736 20.357C21.5738 20.1849 21.0413 20.1245 19.93 20.0896C19.5022 20.078 19.0187 20.0594 18.8582 20.0524L18.5653 20.0385L18.7234 19.8269C19.0047 19.4526 19.1303 19.1271 19.1558 18.704C19.1791 18.3018 19.0954 17.9065 18.8885 17.4439C18.6839 16.9882 18.4328 16.6743 18.0747 16.4302C17.9817 16.3674 17.9074 16.3093 17.9074 16.3023C17.9074 16.2953 17.9538 16.2628 18.0073 16.2303C18.0608 16.1977 18.2003 16.0768 18.3142 15.9629C18.6722 15.6025 18.9768 15.1282 19.1 14.7307C19.1605 14.5354 19.2326 14.1587 19.2326 14.0332L19.2326 13.9588L19.7278 13.9704C20.4648 13.9844 21.0041 13.896 21.7969 13.6263C22.6874 13.3241 23.0036 13.1567 23.3221 12.8219C23.6174 12.5127 23.8057 12.0989 23.8615 11.6455C23.9405 11.0038 23.6476 10.2738 23.1175 9.78789C22.692 9.39731 21.9225 9.00207 21.2413 8.82538C20.6554 8.67426 19.572 8.48361 18.9303 8.41851C18.7955 8.40689 18.1212 8.38364 17.4307 8.36969C16.7402 8.35342 16.173 8.33947 16.1706 8.33947C16.1683 8.33714 16.2427 8.16277 16.3357 7.95353C16.4287 7.74196 16.6333 7.2514 16.7914 6.86082C16.9472 6.47023 17.1494 5.99595 17.2378 5.80298C17.3284 5.61233 17.4307 5.38217 17.4656 5.2915C17.5005 5.20315 17.6005 4.95671 17.6865 4.74514C18.0771 3.7803 18.2305 3.12932 18.2328 2.44114C18.2328 1.68322 17.991 1.06246 17.5772 0.755573C16.9751 0.313838 16.345 0.276639 15.4104 0.627702C14.6432 0.915993 13.7388 1.49025 12.7832 2.29467C12.6182 2.43417 12.388 2.62481 12.2717 2.72013C11.6603 3.21766 11.1256 3.72217 10.7257 4.17786C10.4095 4.53822 9.00755 6.33771 8.58907 6.92359C8.4147 7.16771 8.18686 7.50715 8.08456 7.67454C7.98226 7.84426 7.87764 7.99073 7.85207 8.00003C7.82649 8.00933 7.58005 8.02328 7.30571 8.03025C6.61288 8.04885 5.97121 8.13255 5.01566 8.32784C4.11359 8.51384 3.12085 8.85792 2.62332 9.15784C2.37688 9.30663 1.99326 9.61585 1.8189 9.80649C1.21907 10.4668 0.80058 11.6292 0.484391 13.5217C0.344895 14.3517 0.277473 14.9446 0.2147 15.9164C0.128678 17.2788 0.126353 19.2619 0.212375 19.985C0.393719 21.5148 0.821504 23.1167 1.27951 23.9722C1.59338 24.5628 1.84447 24.9069 2.28388 25.3463C2.72561 25.7903 2.98833 25.967 3.59281 26.2274C4.16009 26.4692 4.54138 26.5552 5.58527 26.6691C6.50594 26.7714 6.95232 26.7947 7.92646 26.7924L8.79133 26.79L8.81458 26.904C8.84713 27.0551 8.87503 27.1039 9.1145 27.455C9.75385 28.3966 10.3862 29.1987 10.8489 29.659C11.6394 30.4448 12.3996 30.947 13.4203 31.3492C13.9968 31.5771 14.4874 31.7096 15.0361 31.7886C15.3174 31.8281 16.2078 31.8281 16.4891 31.7886C16.7681 31.7491 17.2331 31.6003 17.4889 31.4678C17.8585 31.2771 18.2235 30.9517 18.4049 30.6564C18.5304 30.4471 18.5955 30.4006 18.7629 30.4006C18.8652 30.4006 18.914 30.4123 18.9745 30.4564C19.1233 30.5634 19.1582 30.775 19.0605 30.9819C19.0024 31.1074 18.8327 31.3422 18.735 31.4329C18.6327 31.5282 18.6234 31.5259 19.0466 31.5747C19.3488 31.6119 19.7603 31.7049 19.9858 31.7886C20.4578 31.9607 20.781 32.149 21.4668 32.6465C22.141 33.1371 22.6525 33.4626 22.6874 33.4277C22.6944 33.4207 22.6827 33.3533 22.6641 33.2766C22.5944 33.0069 22.6293 32.5837 22.7571 32.1397C22.8943 31.6677 23.3895 30.8517 23.6127 30.7331C23.7755 30.6471 23.9475 30.6703 24.0684 30.7959C24.1358 30.8656 24.1474 30.8959 24.1544 31.0098C24.166 31.1586 24.1614 31.1679 23.9475 31.4399C23.8034 31.6212 23.5546 32.0699 23.4895 32.2629C23.4174 32.4791 23.3709 32.7442 23.3709 32.9348C23.3709 33.1766 23.4686 33.4161 23.6197 33.5509C23.6778 33.6021 23.7476 33.6439 23.7755 33.6439C23.8708 33.6439 24.173 33.5463 24.3241 33.4672C24.6636 33.2882 24.8891 33.0441 25.0914 32.6326C25.361 32.0839 25.4285 31.5236 25.2774 31.0935C25.1867 30.8308 24.8682 30.4332 24.5915 30.2379C24.2869 30.0217 24.0637 29.9403 23.4407 29.8194C22.7688 29.6892 22.0597 29.4846 21.5807 29.28C20.7228 28.9127 19.9928 28.4733 19.3372 27.9269C18.9164 27.5782 17.905 26.5087 17.461 25.9507L17.3633 25.8252L17.4703 25.8392C17.9376 25.9042 21.4157 25.9368 22.0225 25.8833C23.2454 25.7741 23.9382 25.5741 24.466 25.1765C24.9705 24.7953 25.2704 24.2908 25.3587 23.6653C25.3959 23.4026 25.3959 23.3864 25.368 23.1422ZM24.3474 23.6235C24.2916 23.9141 24.1126 24.1838 23.8359 24.3907C23.622 24.5488 23.3942 24.6418 23.0199 24.7255C22.0062 24.951 20.6205 24.9696 17.0355 24.8115L16.7123 24.7976L16.4729 24.3559C16.3404 24.1141 16.1427 23.7653 16.0335 23.5817C15.6499 22.94 15.2244 22.0542 14.9431 21.3172L14.8222 20.9963L14.8943 20.987C14.9803 20.9731 16.2497 20.8615 16.5473 20.8429C16.7216 20.8289 16.7728 20.8336 16.8356 20.8661C16.8774 20.8894 17.003 20.915 17.1122 20.9266C17.7539 20.994 18.914 21.0684 19.651 21.0893C20.6159 21.1172 20.9739 21.1405 21.411 21.2079C22.413 21.359 23.3546 21.7426 23.8336 22.1913C24.2404 22.5773 24.4404 23.1306 24.3474 23.6235ZM22.8153 11.7408C22.7292 12.0221 22.5688 12.2058 22.2829 12.3546C21.9341 12.5383 21.2273 12.7777 20.7182 12.8847C20.3648 12.9614 20.3532 12.9614 19.6952 12.9661L19.0326 12.9684L19.0024 12.901C18.9187 12.7126 18.663 12.4058 18.4188 12.2012C17.7632 11.6548 16.6775 11.2479 15.5708 11.1387C15.4174 11.1224 15.2546 11.1038 15.2058 11.0945L15.1221 11.0805L15.2453 10.6621C15.3709 10.2413 15.436 10.0529 15.6103 9.60655L15.7033 9.36708L17.1146 9.37871C17.8888 9.38568 18.6444 9.40196 18.7908 9.41591C19.4023 9.47635 20.3485 9.6391 20.9181 9.78092C21.3575 9.89252 21.8458 10.1041 22.1945 10.3366C22.3665 10.4505 22.606 10.69 22.6874 10.8248C22.8571 11.1154 22.9036 11.4549 22.8153 11.7408ZM18.2096 14.1332C18.1631 14.4098 18.0794 14.6284 17.9306 14.8446C17.7097 15.1678 17.5726 15.3142 17.3866 15.4212C17.2959 15.4723 17.1959 15.5397 17.1634 15.5676C17.1308 15.5979 17.0681 15.6374 17.0216 15.656C16.9774 15.6746 16.9007 15.7234 16.8518 15.7653L16.7658 15.842L16.3892 15.7583C15.3755 15.5328 14.4874 15.3886 13.3947 15.2654C12.4577 15.1631 12.1973 15.1492 11.5603 15.1817C10.8628 15.2143 10.4444 15.2701 9.805 15.4072L9.61901 15.4468L9.52601 15.3863C9.41906 15.3166 9.16797 15.0934 8.98198 14.905C8.55187 14.468 8.55187 13.6473 8.98663 13.087C9.06568 12.9823 9.37489 12.7731 9.58878 12.6754C10.0538 12.4685 10.821 12.3244 12.2648 12.1756C13.118 12.0872 14.6594 12.0686 15.4429 12.1384C16.2148 12.2081 17.0936 12.4918 17.5888 12.8359C18.1003 13.1893 18.2956 13.5961 18.2096 14.1332ZM18.0957 18.9272C18.0399 19.0736 17.8748 19.3061 17.7353 19.434C17.6749 19.4898 17.5493 19.5712 17.4586 19.6153C17.1355 19.7688 16.9472 19.7967 15.5592 19.9153C14.7896 19.9803 14.5455 20.0059 14.4851 20.0315C14.4548 20.0431 14.4409 20.0268 14.42 19.9455C14.2502 19.2922 14.0015 18.8225 13.5969 18.3994C13.2784 18.0646 12.946 17.867 12.5019 17.7507C12.3089 17.6996 12.2043 17.688 11.8858 17.6787C10.6373 17.6438 9.79338 18.1344 9.41906 19.1108L9.34699 19.2991L9.1889 19.1597C8.70764 18.7319 8.54954 18.4506 8.55187 18.0204C8.55187 17.7577 8.59837 17.5717 8.72391 17.3113C9.02615 16.6859 9.59111 16.4046 10.8675 16.2419C11.2651 16.1907 12.1462 16.1721 12.5484 16.2047C12.7274 16.221 12.9948 16.2419 13.1413 16.2535C14.2619 16.3442 16.259 16.7045 16.8611 16.9277C17.5307 17.1742 17.8353 17.4601 18.0492 18.046C18.1701 18.3785 18.1863 18.6877 18.0957 18.9272ZM16.3938 2.08775C16.3613 2.17145 16.2985 2.2412 16.1404 2.35744C16.0707 2.41092 15.8823 2.58064 15.7219 2.73641C15.3802 3.06887 15.3058 3.10607 15.1291 3.03865C14.9501 2.9689 14.8571 2.79453 14.9059 2.61086C14.9384 2.49694 15.1802 2.21562 15.4592 1.97151C15.7103 1.75064 15.8451 1.65997 15.9614 1.62742C16.2404 1.5507 16.4961 1.82039 16.3938 2.08775ZM15.9033 29.2289C15.8707 29.2893 15.8172 29.3358 15.7498 29.3684C15.5917 29.4474 15.4918 29.4195 15.0616 29.1894C14.4502 28.8615 13.8108 28.4221 13.1947 27.906C12.8925 27.6526 12.2043 26.9505 12.1369 26.8249C11.9811 26.5436 12.2741 26.2065 12.5763 26.3227C12.6112 26.3344 12.8716 26.5738 13.1529 26.8505C13.9108 27.5991 14.6525 28.1501 15.4662 28.5709C15.6266 28.6546 15.787 28.75 15.8242 28.7825C15.9591 28.9057 15.9893 29.0754 15.9033 29.2289ZM14.6292 3.88492C14.606 3.93142 14.4827 4.08719 14.3572 4.23366C13.4296 5.31009 12.8181 6.17729 12.1764 7.3258C11.7882 8.02328 11.5998 8.42084 11.2511 9.30198C10.8931 10.2041 10.7559 10.6411 10.6303 11.2851C10.6048 11.4084 10.5676 11.5432 10.5443 11.5827C10.4095 11.8106 10.0561 11.7966 9.93055 11.5572C9.87475 11.4549 9.87475 11.3479 9.93287 10.9829C10.0189 10.4528 10.549 8.97882 11.0279 7.94656C11.4789 6.97009 12.2485 5.70766 12.946 4.80326C13.4923 4.09416 14.0945 3.38971 14.1852 3.35019C14.227 3.33391 14.306 3.32461 14.3758 3.33159C14.4688 3.34089 14.5083 3.35949 14.5734 3.42226C14.7036 3.55013 14.7222 3.70125 14.6292 3.88492ZM13.5737 22.8261C13.49 23.67 13.3924 24.0094 13.1157 24.4186C12.8437 24.8162 12.1997 25.2602 11.6022 25.4579C10.8768 25.6973 10.3211 25.7531 8.44492 25.7764C7.14994 25.7927 6.63381 25.7741 5.68524 25.6694C4.69017 25.5602 4.36003 25.4788 3.80438 25.2161C3.39054 25.0208 3.16967 24.8511 2.81396 24.4488C2.26528 23.8327 1.92352 23.1213 1.61198 21.9542C1.42366 21.2544 1.30044 20.6081 1.20744 19.8525C1.16094 19.4619 1.15629 19.334 1.15862 18.3111C1.16327 15.9652 1.28649 14.5493 1.62128 12.9079C1.81192 11.971 2.10719 11.1177 2.37688 10.7202C2.56287 10.4458 2.91858 10.1343 3.24175 9.96459C3.88808 9.62282 5.05054 9.30198 6.2595 9.12994C6.67566 9.07182 7.32663 9.01369 7.34756 9.03229C7.35221 9.03927 7.28944 9.19504 7.20574 9.37871C7.00115 9.83207 6.56871 10.9155 6.43619 11.3084C6.1107 12.2825 5.81311 13.7519 5.69686 14.9515C5.66432 15.298 5.65734 16.3442 5.68524 16.8371L5.70151 17.1532L5.5225 17.1114C5.12726 17.0207 4.53673 16.9556 4.00432 16.9463C3.66023 16.9394 3.63931 16.9417 3.53004 16.9975C3.14875 17.1881 3.14875 17.6903 3.52539 17.8786C3.62536 17.9298 3.68116 17.9367 4.08104 17.953C4.79944 17.9856 5.28768 18.0646 5.88751 18.246C6.43154 18.411 6.72913 18.5459 7.18946 18.8388C7.68467 19.155 7.93344 19.3503 8.25195 19.6735C8.96803 20.3988 9.27492 20.894 9.48184 21.6427C9.72363 22.5238 9.89335 22.7656 10.2723 22.7656C10.549 22.7656 10.7466 22.5633 10.7466 22.2797C10.7466 22.1681 10.7326 22.1146 10.6675 21.9937C10.5722 21.8124 10.4978 21.5845 10.3769 21.0847C10.1793 20.2826 10.1909 19.8083 10.4165 19.3456C10.6303 18.9062 11.0186 18.704 11.6998 18.6784C12.3438 18.6528 12.7484 18.8528 13.0901 19.3666C13.1645 19.4782 13.2598 19.6479 13.2994 19.7455C13.4342 20.071 13.5528 20.6546 13.6062 21.2521C13.6341 21.5729 13.6155 22.382 13.5737 22.8261Z" fill="black"/>
</svg>
