<svg width="36" height="36" viewBox="0 0 36 36" fill="none" xmlns="http://www.w3.org/2000/svg">
<rect x="0.5" y="0.5" width="35" height="35" rx="17.5" fill="white"/>
<rect x="0.5" y="0.5" width="35" height="35" rx="17.5" stroke="#7B7B7B"/>
<g clip-path="url(#clip0_1100_17258)">
<path d="M17.3032 10L18.8824 10.004C19.5048 10.0792 20.0504 10.372 20.5 10.8664C20.8672 11.2696 21.06 11.7384 21.0712 12.2488H25.4512C25.5975 12.2496 25.7374 12.3085 25.8403 12.4125C25.9432 12.5164 26.0006 12.6569 26 12.8032C26.0004 12.9493 25.9429 13.0897 25.84 13.1934C25.7371 13.2972 25.5973 13.356 25.4512 13.3568L23.9824 13.356V22.6576C23.9824 24.692 23.2232 26 21.5496 26H14.3352C12.6616 26 11.9144 24.6992 11.9144 22.6576V13.356H10.5488C10.403 13.3552 10.2634 13.2966 10.1605 13.1932C10.0577 13.0898 10 12.9498 10 12.804C10 12.4976 10.2456 12.2504 10.5488 12.2504H14.9248C14.936 11.8392 15.0888 11.4224 15.368 11.0104C15.784 10.396 16.4336 10.0592 17.3032 10ZM22.8848 13.356H13.0112V22.6576C13.0112 24.168 13.4272 24.8928 14.3352 24.8928H21.5496C22.4608 24.8928 22.8856 24.1616 22.8856 22.6576L22.8848 13.356ZM15.3728 15.072C15.6752 15.072 15.9208 15.32 15.9208 15.6256V22.0656C15.9212 22.2117 15.8637 22.3521 15.7608 22.4558C15.6579 22.5596 15.5181 22.6184 15.372 22.6192C15.226 22.6181 15.0864 22.5593 14.9837 22.4555C14.881 22.3518 14.8236 22.2116 14.824 22.0656V15.6256C14.824 15.32 15.0704 15.072 15.3728 15.072ZM17.5528 15.072C17.8568 15.072 18.1016 15.32 18.1016 15.6256V22.0656C18.102 22.2117 18.0445 22.3521 17.9416 22.4558C17.8387 22.5596 17.6989 22.6184 17.5528 22.6192C17.4068 22.6181 17.2672 22.5593 17.1645 22.4555C17.0618 22.3518 17.0044 22.2116 17.0048 22.0656V15.6256C17.0048 15.32 17.2504 15.072 17.5528 15.072ZM19.7352 15.072C20.0376 15.072 20.2832 15.32 20.2832 15.6256V22.0656C20.2836 22.2116 20.2262 22.3518 20.1235 22.4555C20.0208 22.5593 19.8812 22.6181 19.7352 22.6192C19.5891 22.6184 19.4493 22.5596 19.3464 22.4558C19.2435 22.3521 19.186 22.2117 19.1864 22.0656V15.6256C19.186 15.4795 19.2435 15.3391 19.3464 15.2354C19.4493 15.1316 19.5891 15.0728 19.7352 15.072ZM17.3408 11.1056C16.8272 11.1416 16.4888 11.3168 16.2736 11.6352C16.1152 11.868 16.036 12.0696 16.0232 12.2496L19.9736 12.2488C19.9624 12.016 19.8704 11.8112 19.692 11.6152C19.4152 11.3112 19.108 11.1464 18.8176 11.1072L17.3408 11.1056Z" fill="#7B7B7B"/>
</g>
<defs>
<clipPath id="clip0_1100_17258">
<rect width="16" height="16" fill="white" transform="translate(10 10)"/>
</clipPath>
</defs>
</svg>
