<svg width="36" height="36" viewBox="0 0 36 36" fill="none" xmlns="http://www.w3.org/2000/svg">
<rect x="0.5" y="0.5" width="35" height="35" rx="17.5" stroke="#171717"/>
<path d="M15.518 24.187H12.375C12.2258 24.187 12.0827 24.1277 11.9773 24.0222C11.8718 23.9167 11.8125 23.7736 11.8125 23.6245V20.4815C11.8122 20.4084 11.8264 20.3361 11.8541 20.2685C11.8819 20.2009 11.9227 20.1395 11.9742 20.0877L20.4117 11.6502C20.4641 11.5971 20.5265 11.5549 20.5953 11.5261C20.6641 11.4973 20.7379 11.4824 20.8125 11.4824C20.8871 11.4824 20.9609 11.4973 21.0298 11.5261C21.0986 11.5549 21.1609 11.5971 21.2133 11.6502L24.3492 14.7862C24.4024 14.8385 24.4446 14.9009 24.4734 14.9697C24.5022 15.0385 24.517 15.1124 24.517 15.187C24.517 15.2615 24.5022 15.3354 24.4734 15.4042C24.4446 15.473 24.4024 15.5354 24.3492 15.5877L15.9117 24.0252C15.8599 24.0768 15.7985 24.1176 15.731 24.1453C15.6634 24.1731 15.591 24.1872 15.518 24.187V24.187Z" stroke="black" stroke-linecap="round" stroke-linejoin="round"/>
<path d="M18.5625 13.5L22.5 17.4375" stroke="black" stroke-linecap="round" stroke-linejoin="round"/>
</svg>
