<svg width="22" height="10" viewBox="0 0 22 10" fill="none" xmlns="http://www.w3.org/2000/svg">
<g id="Group">
<path id="Vector" d="M20.75 0.125H1.25C1.04263 0.125 0.875 0.293 0.875 0.5V2.75C0.875 2.957 1.04263 3.125 1.25 3.125H1.625V9.5C1.625 9.707 1.79263 9.875 2 9.875H20C20.2074 9.875 20.375 9.707 20.375 9.5V3.125H20.75C20.9574 3.125 21.125 2.957 21.125 2.75V0.5C21.125 0.293 20.9574 0.125 20.75 0.125ZM19.625 9.125H2.375V3.125H19.625V9.125ZM20.375 2.375H20H2H1.625V0.875H20.375V2.375Z" fill="black"/>
<path id="Vector_2" d="M14 8.375H18.5C18.7074 8.375 18.875 8.207 18.875 8C18.875 7.793 18.7074 7.625 18.5 7.625H14C13.7926 7.625 13.625 7.793 13.625 8C13.625 8.207 13.7926 8.375 14 8.375Z" fill="black"/>
</g>
</svg>
