<svg width="36" height="36" viewBox="0 0 36 36" fill="none" xmlns="http://www.w3.org/2000/svg">
<rect x="0.5" y="0.5" width="35" height="35" rx="17.5" fill="white"/>
<rect x="0.5" y="0.5" width="35" height="35" rx="17.5" stroke="#7B7B7B"/>
<path d="M18.3125 25.5C18.3125 25.5 10.5 21.125 10.5 15.8125C10.5 14.8734 10.8254 13.9632 11.4208 13.2369C12.0162 12.5106 12.8449 12.0131 13.7658 11.8289C14.6867 11.6447 15.643 11.7853 16.4719 12.2267C17.3009 12.6681 17.9513 13.3831 18.3125 14.25V14.25C18.6737 13.3831 19.3241 12.6681 20.1531 12.2267C20.982 11.7853 21.9383 11.6447 22.8592 11.8289C23.7801 12.0131 24.6088 12.5106 25.2042 13.2369C25.7996 13.9632 26.125 14.8734 26.125 15.8125C26.125 21.125 18.3125 25.5 18.3125 25.5Z" stroke="#7B7B7B" stroke-width="1.07143" stroke-linecap="round" stroke-linejoin="round"/>
</svg>
